<?xml version="1.0" encoding="UTF-8"?>
<svg width="28px" height="28px" viewBox="0 0 28 28" version="1.1" xmlns="http://www.w3.org/2000/svg" xmlns:xlink="http://www.w3.org/1999/xlink">
    <title>图标/弹窗/侦查</title>
    <g id="图标/弹窗/侦查" stroke="none" stroke-width="1" fill="none" fill-rule="evenodd">
        <path d="M21.5009522,11.7481322 C21.5009522,13.8997998 20.8024806,15.8873968 19.6258606,17.4999756 L25.5605254,23.4393281 C26.1464915,24.0252942 26.1464915,24.9769032 25.5605254,25.5628693 C24.9745593,26.1488354 24.0229503,26.1488354 23.4369842,25.5628693 L17.5023194,19.6235168 C15.8897407,20.8048245 13.9021437,21.4986083 11.7504761,21.4986083 C6.3642756,21.4986083 2,17.1343327 2,11.7481322 C2,6.36193173 6.3642756,1.99765614 11.7504761,1.99765614 C17.1366766,1.99765614 21.5009522,6.36193173 21.5009522,11.7481322 M11.7504761,18.4984618 C14.1621366,18.4984618 16.3906028,17.2118563 17.5964331,15.1232971 C18.8022634,13.0347378 18.8022634,10.4615267 17.5964331,8.3729674 C16.3906028,6.28440814 14.1621366,4.99780263 11.7504761,4.99780263 C8.022372,4.99780263 5.00014649,8.02002814 5.00014649,11.7481322 C5.00014649,15.4762363 8.022372,18.4984618 11.7504761,18.4984618" id="形状" fill="#FFFFFF" fill-rule="nonzero"></path>
    </g>
</svg>