<?xml version="1.0" encoding="UTF-8"?>
<svg width="28px" height="28px" viewBox="0 0 28 28" version="1.1" xmlns="http://www.w3.org/2000/svg" xmlns:xlink="http://www.w3.org/1999/xlink">
    <title>图标/弹窗/凭证访问</title>
    <g id="图标/弹窗/凭证访问" stroke="none" stroke-width="1" fill="none" fill-rule="evenodd">
        <g id="编组" transform="translate(2, 5.0007)" fill="#FFFFFF" fill-rule="nonzero">
            <path d="M18.7519923,4.50036223 L17.2509056,4.50036223 C16.8365129,4.50036223 16.5003622,4.83651292 16.5003622,5.25090558 L16.5003622,6.75199227 C16.5003622,7.16638493 16.8365129,7.50253562 17.2509056,7.50253562 L18.7519923,7.50253562 C19.1663849,7.50253562 19.5025356,7.16638493 19.5025356,6.75199227 L19.5025356,5.25090558 C19.4996378,4.83651292 19.1634871,4.50036223 18.7519923,4.50036223 Z M21.0007245,0 L2.99927554,0 C1.3417049,0 0,1.34460275 0,2.99927554 L0,14.9992755 C0,16.6568462 1.34460275,17.9985511 2.99927554,17.9985511 L21.0007245,17.9985511 C22.6582951,17.9985511 24,16.6539483 24,14.9992755 L24,2.99927554 C24,1.3417049 22.6582951,0 21.0007245,0 Z M12.7505433,15.0021734 L3.74981888,15.0021734 C3.33542623,15.0021734 2.99927554,14.6660227 2.99927554,14.25163 C2.99927554,13.8372374 3.33542623,13.5010867 3.74981888,13.5010867 L12.7505433,13.5010867 C13.164936,13.5010867 13.5010867,13.8372374 13.5010867,14.25163 C13.5010867,14.6660227 13.164936,15.0021734 12.7505433,15.0021734 Z M12.7505433,12 L3.74981888,12 C3.33542623,12 2.99927554,11.6638493 2.99927554,11.2494567 C2.99927554,10.835064 3.33542623,10.4989133 3.74981888,10.4989133 L12.7505433,10.4989133 C13.164936,10.4989133 13.5010867,10.835064 13.5010867,11.2494567 C13.5010867,11.6638493 13.164936,12 12.7505433,12 Z M21.0007245,7.49963777 C21.0007245,8.32842309 20.3284231,9.00072446 19.4996378,9.00072446 L16.5003622,9.00072446 C15.6715769,9.00072446 14.9992755,8.32842309 14.9992755,7.49963777 L14.9992755,4.50036223 C14.9992755,3.67157691 15.6715769,2.99927554 16.5003622,2.99927554 L19.4996378,2.99927554 C20.3284231,2.99927554 21.0007245,3.67157691 21.0007245,4.50036223 L21.0007245,7.49963777 Z" id="形状"></path>
        </g>
    </g>
</svg>