<?xml version="1.0" encoding="UTF-8"?>
<svg width="28px" height="28px" viewBox="0 0 28 28" version="1.1" xmlns="http://www.w3.org/2000/svg" xmlns:xlink="http://www.w3.org/1999/xlink">
    <title>图标/弹窗/危害</title>
    <g id="图标/弹窗/危害" stroke="none" stroke-width="1" fill="none" fill-rule="evenodd">
        <g id="编组" transform="translate(2, 4.1973)" fill="#FFFFFF" fill-rule="nonzero">
            <path d="M23.8827789,18.4231959 L12.6576824,0.366690997 C12.5154425,0.139276541 12.2680467,0 11.9996537,0 C11.7316613,0.000313860095 11.4828213,0.138963771 11.3415403,0.366690997 L0.115597098,18.4231959 C-0.031902784,18.6621742 -0.0387035183,18.9622161 0.097817111,19.2076319 C0.234267428,19.4530113 0.492944206,19.6053109 0.773710506,19.6053109 L23.2279675,19.6053109 C23.5093992,19.6053109 23.7642457,19.4527417 23.9012362,19.2076319 C24.0392547,18.9625169 24.032173,18.6615484 23.8827789,18.4231959 Z M11.9813657,17.228381 C11.3440802,17.228381 10.8251587,16.7070042 10.8251587,16.0721741 C10.8251587,15.4352273 11.3466203,14.9160518 11.9813657,14.9160518 C12.6161958,14.9160518 13.1375726,15.4352273 13.1375726,16.0721741 C13.1375726,16.7091208 12.6161958,17.228381 11.9813657,17.228381 L11.9813657,17.228381 Z M12.5594692,13.1842814 C12.5594692,13.5302291 12.3273134,13.7628082 11.9813657,13.7628082 C11.6355027,13.7628082 11.4032622,13.5302291 11.4032622,13.1842814 L10.8251587,6.8310698 C10.8251587,6.19369971 11.3466203,5.67486284 11.9813657,5.67486284 C12.6161958,5.67486284 13.1375726,6.1959857 13.1375726,6.8310698 L12.5594692,13.1842814 Z" id="形状"></path>
        </g>
    </g>
</svg>