<?xml version="1.0" encoding="UTF-8"?>
<svg width="28px" height="28px" viewBox="0 0 28 28" version="1.1" xmlns="http://www.w3.org/2000/svg" xmlns:xlink="http://www.w3.org/1999/xlink">
    <title>图标/弹窗/发现</title>
    <g id="图标/弹窗/发现" stroke="none" stroke-width="1" fill="none" fill-rule="evenodd">
        <g id="编组" transform="translate(2, 6.2535)" fill="#FFFFFF" fill-rule="nonzero">
            <path d="M11.7653188,0 C13.4075927,0.0031380278 14.8879868,0.341691117 16.3090887,0.953771697 C17.9354837,1.65425972 19.3714263,2.64776404 20.6952965,3.81298691 C21.8147231,4.79823326 22.8263713,5.88568966 23.7608666,7.04600493 C24.0812049,7.44377945 24.0608432,7.77306002 23.8117592,8.14200243 C23.1253805,9.15855828 22.3406848,10.0931715 21.4904917,10.9742495 C20.3361929,12.1704987 19.0569865,13.2089028 17.6012247,14.0199768 C16.3604061,14.7112867 15.045714,15.1946845 13.6343329,15.3923095 C11.8860503,15.6370992 10.1868908,15.4306265 8.53237157,14.8237366 C6.78293287,14.1820689 5.25273142,13.179528 3.84647027,11.9752332 C2.49832162,10.8206985 1.3085372,9.51636423 0.225634481,8.11267485 C-0.0695524795,7.7300478 -0.0742949125,7.50812081 0.206641155,7.11121928 C1.46737332,5.32995201 2.96921455,3.78469747 4.73611295,2.50110253 C5.90390758,1.65270251 7.16256345,0.97696479 8.53890716,0.530303104 C9.61659557,0.180566367 10.7224554,0.00370428845 11.7653896,0 L11.7653188,0 Z M17.1394863,3.03593572 C18.6134392,5.73834392 17.7712209,8.7772761 15.8370868,10.4147604 C13.816598,12.1253866 10.9613467,12.3118279 8.78490023,10.8611389 C7.4769089,9.98930985 6.63452539,8.78076804 6.29033329,7.24252097 C5.94682542,5.70736474 6.20782439,4.2624799 6.98869784,2.90052864 C4.8870686,4.06827609 3.20886077,5.70120666 1.7454073,7.57956403 C2.41248594,8.41366598 3.10646197,9.20411867 3.85427995,9.94580215 C4.52610103,10.612173 5.23675815,11.23388 6.00682546,11.7865504 C7.40067606,12.7869442 8.90905288,13.5251358 10.6126717,13.8252539 C11.6992315,14.0167444 12.7843521,14.0162961 13.8658863,13.7968701 C15.4667524,13.4720724 16.8959471,12.7600468 18.2066753,11.8079975 C19.7632551,10.6773165 21.0784191,9.30153909 22.2155176,7.75253307 C22.2714123,7.67637101 22.2716954,7.62842761 22.2084158,7.55830566 C21.7802756,7.08415674 21.3663862,6.59674788 20.9281476,6.1322018 C19.9495077,5.0947179 18.8840175,4.15677791 17.6850549,3.37762684 C17.5051728,3.26071761 17.3214212,3.14968333 17.1395099,3.0360065 L17.1394863,3.03593572 Z M7.91708218,6.1960005 C7.94400316,6.2866258 7.96268976,6.42960661 8.026748,6.54809666 C8.14363363,6.76433744 8.43506912,6.85305161 8.71317388,6.78420375 C8.97674462,6.71891862 9.12498694,6.51636246 9.16382299,6.23162773 C9.20895868,5.90050681 9.24873849,5.56282671 9.3482824,5.24602747 C9.7322779,4.0235179 10.5873079,3.35429218 11.8492198,3.19455949 C12.216251,3.14810252 12.4671045,2.87240436 12.4613003,2.5012441 C12.4559681,2.1615113 12.2405059,1.95102749 11.9018348,1.96560871 C11.7706039,1.97124772 11.6395146,1.99344986 11.5096285,2.01546324 C10.7509572,2.14407519 10.0518613,2.41616343 9.45681569,2.9133167 C8.45101879,3.75362391 8.04897373,4.88331392 7.91708218,6.19602409 L7.91708218,6.1960005 Z" id="形状"></path>
        </g>
    </g>
</svg>