<?xml version="1.0" encoding="UTF-8"?>
<svg width="28px" height="28px" viewBox="0 0 28 28" version="1.1" xmlns="http://www.w3.org/2000/svg" xmlns:xlink="http://www.w3.org/1999/xlink">
    <title>图标/弹窗/持久化</title>
    <g id="图标/弹窗/持久化" stroke="none" stroke-width="1" fill="none" fill-rule="evenodd">
        <g id="编组" transform="translate(2, 3.3556)" fill="#FFFFFF" fill-rule="nonzero">
            <path d="M18.6726309,10.1482838 L20.9953478,10.1482838 L20.9953478,11.4492855 L18.6726309,11.4492855 L18.6726309,10.1482838 Z M12.1675983,16.339044 L13.4686,16.339044 L13.4686,18.6617609 L12.1675983,18.6617609 L12.1675983,16.339044 Z M18.8374434,5.69879618 L17.1950672,7.34117232 L16.2751289,6.42123401 L17.9175051,4.77885786 L18.8374434,5.69879618 Z M17.9175858,16.8189947 L16.2752096,15.1766185 L17.195148,14.2566802 L18.8375241,15.8990564 L17.9175858,16.8189947 Z M9.10744396,14.3117628 L12.1924099,11.2255491 L12.1924099,4.98792515 L14.1651248,4.98792515 L14.1651248,12.005915 C14.027965,12.1430747 10.5034449,15.7072838 10.5034449,15.7072838 L9.10744396,14.3117628 Z M13.355628,0 L13.355628,1.87157273 C18.1922839,1.87157273 22.1276594,5.80694815 22.1276594,10.6443479 C22.1276594,15.4814838 18.192284,19.4168832 13.355628,19.4168832 C8.91713363,19.4168832 5.24004849,16.101534 4.66463033,11.8176203 L5.99968203,13.1344832 L7.32328775,11.8108774 L3.66638305,8.15399673 L0,11.8111414 L1.32360572,13.1347472 L2.76536654,11.6929863 C3.29389698,17.0713944 7.84159604,21.2887439 13.356132,21.2887439 C19.2246772,21.2887439 24,16.5136851 24,10.6446359 C23.9994721,4.77532277 19.2246532,0 13.355628,0 Z" id="形状"></path>
        </g>
    </g>
</svg>