<?xml version="1.0" encoding="UTF-8"?>
<svg width="28px" height="28px" viewBox="0 0 28 28" version="1.1" xmlns="http://www.w3.org/2000/svg" xmlns:xlink="http://www.w3.org/1999/xlink">
    <title>图标/弹窗/数据窃取</title>
    <g id="图标/弹窗/数据窃取" stroke="none" stroke-width="1" fill="none" fill-rule="evenodd">
        <g id="编组" transform="translate(3.1957, 3)" fill="#FFFFFF" fill-rule="nonzero">
            <path d="M21.0518497,1.07216495 L20.948757,0.639175258 L20.8456642,0.12371134 L20.3302003,0.206185567 C16.1240147,0.907216495 12.9693755,1.2371134 10.8662827,1.21649485 C8.76318995,1.19587629 5.56731366,0.824742268 1.34050954,0.0824742268 L0.825045618,0 L0.598241495,0.948453608 C0.206488917,2.59793814 0.000303350212,4.30927835 0.000303350212,6.06185567 C-0.0203152065,10.2061856 1.01061263,14.1443299 2.94875696,17.1340206 C3.91782912,18.6185567 5.05184974,19.814433 6.33020026,20.6391753 C7.691025,21.5463918 9.17556108,22 10.7013343,22 C11.5260765,22 12.3508188,21.8762887 13.134324,21.628866 C13.8147363,21.4020619 14.4745302,21.0927835 15.0930869,20.7010309 C16.3920559,19.8762887 17.5466951,18.7216495 18.5157673,17.2371134 C20.4951487,14.2886598 21.5879322,10.371134 21.6085508,6.20618557 C21.6085508,4.4742268 21.4229838,2.74226804 21.0518497,1.07216495 Z M5.38174665,11.2783505 C4.66009716,10.9072165 4.10339613,10.2680412 3.8353549,9.48453608 C3.58793222,8.70103093 3.64978789,7.8556701 4.02092191,7.11340206 L9.5466951,9.91752577 C8.76318995,11.443299 6.90751985,12.0618557 5.38174665,11.2783505 L5.38174665,11.2783505 Z M10.2064889,17.5257732 C8.26834459,17.257732 6.72195283,15.7319588 6.4539116,13.7731959 C7.50545799,15.1340206 9.11370541,15.9175258 10.8250456,15.9175258 C12.5157673,15.9175258 14.1033961,15.1546392 15.134324,13.8350515 L15.1755611,13.7731959 C14.8456642,16.185567 12.6188601,17.8556701 10.2064889,17.5257732 Z M16.0827776,11.2783505 C15.6497879,11.5051546 15.1755611,11.6082474 14.6807157,11.6082474 C13.505458,11.6082474 12.433293,10.9484536 11.9178291,9.91752577 L17.4436023,7.11340206 C18.2271075,8.63917526 17.6085508,10.5154639 16.0827776,11.2783505 L16.0827776,11.2783505 Z" id="形状"></path>
        </g>
    </g>
</svg>