<?xml version="1.0" encoding="UTF-8"?>
<svg width="28px" height="28px" viewBox="0 0 28 28" version="1.1" xmlns="http://www.w3.org/2000/svg" xmlns:xlink="http://www.w3.org/1999/xlink">
    <title>图标/弹窗/资源开发</title>
    <g id="图标/弹窗/资源开发" stroke="none" stroke-width="1" fill="none" fill-rule="evenodd">
        <path d="M18.6428243,15.257278 L23.8561179,20.1142948 C24.7931747,21.0251189 24.7931747,22.5033016 23.8561179,23.4138207 L22.4965924,24.733692 C21.5595356,25.6442111 20.0285825,25.6442111 19.0915257,24.733692 C19.0915257,24.733692 17.3591065,22.979489 15.8614987,21.4834293 L15.4774385,21.1003318 C14.5370716,20.1638433 13.7693359,19.4115784 13.7199208,19.4017412 C15.7392294,16.0229071 18.6428243,15.257278 18.6428243,15.257278 Z M20.7005195,2.58379116 L20.9656393,2.58718411 C21.0187148,2.58718411 21.0977179,2.60030047 21.1504884,2.60030047 L21.1504884,4.94934814 L18.774903,7.32523859 L19.3029125,9.27866039 L21.2563343,9.79324855 L21.9823093,9.06727356 L22.695168,8.35471994 L23.6322248,7.41766314 L25.9812724,7.41766314 C25.9943888,7.47043359 25.9943888,7.52320404 25.9943888,7.57597449 C26.0602756,9.01480814 25.5456874,10.4795695 24.4634356,11.5487049 C23.5526115,12.4726454 22.3648188,12.9741172 21.1639098,13.0796581 C20.517243,13.1324285 19.8309221,13.0665417 19.1973716,12.8685763 C19.065293,12.8158058 18.9597521,12.7761517 18.8276734,12.7364976 C18.629708,12.7099599 18.3789721,12.749614 18.1413525,12.9872335 C17.9320914,13.1964947 15.6308083,15.6251667 13.1763642,18.2189424 L12.6669987,18.7572677 C12.5819522,18.8471566 12.4968826,18.9370733 12.4118694,19.0269337 L11.9031024,19.5647456 C9.36900995,22.2436843 7.02874951,24.7202706 7.02874951,24.7202706 C6.21034996,25.6573274 4.73216725,25.604557 3.8478809,24.733387 C2.9767109,23.8491006 2.91082409,22.3578016 3.8478809,21.5525184 C3.8478809,21.5525184 15.1584494,10.8093085 15.5412639,10.4399154 C15.8316539,10.136409 15.8182325,9.84601901 15.7523457,9.60839946 C15.7523457,9.58186172 15.7392294,9.56874536 15.7392294,9.55562901 C15.5016098,8.8693081 15.4226067,8.14363814 15.4753771,7.41766314 C15.5678017,6.21675408 16.0823898,5.04207772 17.0063303,4.11813727 C18.1016984,3.03588547 19.5536484,2.53441366 20.9656393,2.58718411 Z M16.6366321,18.7678857 C16.4121289,18.5436875 16.0296194,18.5436875 15.7919998,18.7678857 C15.5543803,18.9923889 15.5543803,19.3617821 15.7919998,19.5862852 L20.1606611,23.8228679 C20.3851643,24.0470661 20.7676738,24.0470661 21.0052934,23.8228679 C21.2297966,23.5852484 21.2297966,23.2155502 21.0052934,23.0044684 Z M5.99926815,22.5823048 C5.6957618,22.2787984 5.23363906,22.2787984 4.9301327,22.5823048 C4.62662635,22.8858111 4.62662635,23.3479339 4.9301327,23.6514402 C5.23363906,23.9549466 5.6957618,23.9549466 5.99926815,23.6514402 C6.27623106,23.3488728 6.27623106,22.8848722 5.99926815,22.5823048 Z M18.5372834,16.9068884 C18.3127802,16.6826903 17.9302707,16.6826903 17.6926512,16.9068884 C17.4550316,17.1313916 17.4550316,17.5007848 17.6926512,17.725288 L22.0744288,21.9618707 C22.298932,22.1860688 22.6814415,22.1860688 22.9190611,21.9618707 C23.1566806,21.7242511 23.1566806,21.354858 22.9059447,21.1437761 Z M5.40506677,2.82480366 L10.1565426,7.44420088 L9.31191037,8.27571678 L12.8621721,11.7994408 L11.1594862,13.4624726 L7.60922447,9.9253272 L6.76459222,10.7434217 L2,6.12432953 L5.40506677,2.82480366 Z" id="形状结合" fill="#FFFFFF"></path>
    </g>
</svg>