<?xml version="1.0" encoding="UTF-8"?>
<svg width="28px" height="28px" viewBox="0 0 28 28" version="1.1" xmlns="http://www.w3.org/2000/svg" xmlns:xlink="http://www.w3.org/1999/xlink">
    <title>图标/弹窗/初始访问</title>
    <g id="图标/弹窗/初始访问" stroke="none" stroke-width="1" fill="none" fill-rule="evenodd">
        <g id="编组-44" transform="translate(1.7304, -0.1829)" fill="#FFFFFF" fill-rule="nonzero">
            <path d="M13.3555625,13.1540625 C13.8798125,13.1540625 14.386375,13.3600625 14.760875,13.7312188 C15.1823125,14.1490625 15.3923438,14.7326563 15.3330313,15.3208438 L14.3444375,25.1214063 C14.2572813,25.9860938 13.6091563,26.6920625 12.7490938,26.8591875 C12.6211875,26.8840938 12.4930938,26.896125 12.36625,26.896125 C11.640875,26.896125 10.9591563,26.5010938 10.6100625,25.8474688 L9.645125,24.0400625 L5.86409375,27.7886563 C5.476,28.1736563 4.9673125,28.365875 4.45871875,28.365875 C3.950125,28.365875 3.4414375,28.173625 3.05334375,27.7886563 L0.5820625,25.338625 C0.209375,24.9691563 0,24.4678125 0,23.9453125 C0,23.4228125 0.209375,22.9215625 0.5820625,22.552 L4.36309375,18.8031875 L2.5401875,17.8465313 C1.765625,17.4399688 1.351125,16.5782813 1.51975,15.7256875 C1.688375,14.8730938 2.40025,14.2306563 3.27234375,14.144125 L13.1575,13.164 C13.2238125,13.1574375 13.289875,13.1540625 13.3554688,13.1540625 Z" id="形状结合"></path>
            <path d="M14.3049688,6.916875 C14.85375,6.916875 15.2988125,6.4758125 15.2988125,5.93171875 L15.2988125,0.98515625 C15.2988125,0.44109375 14.8536875,0 14.3049688,0 C13.7561875,0 13.311125,0.4410625 13.311125,0.98515625 L13.311125,5.93165625 C13.311125,6.47571875 13.7562188,6.916875 14.3049688,6.916875 L14.3049688,6.916875 Z" id="路径"></path>
            <path d="M20.0178437,9.26303125 C20.2721875,9.26303125 20.5262812,9.16678125 20.7204375,8.97434375 L24.2482187,5.47671875 C24.6363125,5.0921875 24.6363125,4.468125 24.2482187,4.08359375 C23.860125,3.698625 23.231125,3.698625 22.8428437,4.08359375 L19.3152812,7.5810625 C18.9269062,7.96575 18.9269062,8.58965625 19.3152812,8.974375 C19.50925,9.166875 19.7635937,9.26303125 20.017875,9.26303125 L20.0178437,9.26303125 Z" id="路径"></path>
            <path d="M7.8895625,8.9743125 C8.08353125,9.16678125 8.337875,9.26296875 8.59215625,9.26296875 C8.8464375,9.26296875 9.10059375,9.16675 9.29475,8.9743125 C9.68284375,8.589625 9.68284375,7.96571875 9.29475,7.581 L5.76696875,4.08353125 C5.378875,3.6985625 4.749875,3.6985625 4.36178125,4.08353125 C3.9736875,4.4680625 3.9736875,5.092125 4.36178125,5.47665625 L7.8895625,8.97428125 L7.8895625,8.9743125 Z" id="路径"></path>
            <g id="1" transform="translate(20.1113, 13.8607)">
                <polygon id="路径" points="0 2.556 0 5.328 1.836 4.284 1.836 12.942 4.428 12.942 4.428 0"></polygon>
            </g>
        </g>
    </g>
</svg>