<?xml version="1.0" encoding="UTF-8"?>
<svg width="28px" height="28px" viewBox="0 0 28 28" version="1.1" xmlns="http://www.w3.org/2000/svg" xmlns:xlink="http://www.w3.org/1999/xlink">
    <title>图标/弹窗/命令与控制</title>
    <g id="图标/弹窗/命令与控制" stroke="none" stroke-width="1" fill="none" fill-rule="evenodd">
        <g id="编组" transform="translate(2, 3.8808)" fill="#FFFFFF" fill-rule="nonzero">
            <path d="M22.2737953,0 L0.960920643,0 C0.431551187,0 0,0.428674179 0,0.960920643 L0,18.5122453 C0,19.4645349 0.773915128,20.2384501 1.72620475,20.2384501 L22.2737953,20.2384501 C23.2260849,20.2384501 24,19.4645349 24,18.5122453 L24,1.72620475 C24,0.773915128 23.2260849,0 22.2737953,0 Z M9.21505634,10.9428375 L4.91680652,15.2410873 C4.47087029,15.6870236 3.75161832,15.6870236 3.30280508,15.2410873 C2.85686886,14.7951511 2.85686886,14.0758991 3.30280508,13.6270859 L6.79549269,10.1372753 L3.29417406,6.64458769 C2.84823783,6.19865146 2.84823783,5.47939948 3.29417406,5.03058625 C3.74011029,4.58465002 4.45936226,4.58465002 4.9081755,5.03058625 L9.21505634,9.33171308 C9.66099257,9.7776493 9.66099257,10.4969013 9.21505634,10.9428375 Z M19.9060177,15.0684669 L13.824023,15.0684669 C13.1968353,15.0684669 12.6876049,14.5563594 12.6876049,13.9320487 C12.6876049,13.307738 13.1997123,12.7956306 13.824023,12.7956306 L19.9088947,12.7956306 C20.5360825,12.7956306 21.0453129,13.307738 21.0453129,13.9320487 C21.0453129,14.5563594 20.5332055,15.0684669 19.9060177,15.0684669 L19.9060177,15.0684669 Z" id="形状"></path>
        </g>
    </g>
</svg>