<?xml version="1.0" encoding="UTF-8"?>
<svg width="28px" height="28px" viewBox="0 0 28 28" version="1.1" xmlns="http://www.w3.org/2000/svg" xmlns:xlink="http://www.w3.org/1999/xlink">
    <title>图标/弹窗/执行</title>
    <g id="图标/弹窗/执行" stroke="none" stroke-width="1" fill="none" fill-rule="evenodd">
        <g id="编组" transform="translate(3, 3)" fill="#FFFFFF" fill-rule="nonzero">
            <path d="M11,0 C4.92485714,0 0,4.92485714 0,11 C0,17.0751429 4.92485714,22 11,22 C17.0751429,22 22,17.0751429 22,11 C22,4.92485714 17.0751429,0 11,0 Z M14.7312449,11.9718163 L14.7307959,11.9718163 L9.32732653,15.5742041 C8.96878404,15.8136714 8.5074444,15.8360263 8.12742857,15.6323469 C7.74738633,15.4287577 7.51059551,15.0321784 7.51164883,14.6010408 L7.51164883,7.39940816 C7.51049479,6.96818801 7.74718472,6.57146045 8.12720408,6.36765306 C8.50723249,6.16379647 8.9686949,6.18606682 9.32732653,6.42557143 L14.7312449,10.0281837 C15.056399,10.2446572 15.2518367,10.6093774 15.2518367,11 C15.2516794,11.3905983 15.0563254,11.7552759 14.7312449,11.9718163 L14.7312449,11.9718163 Z" id="形状"></path>
        </g>
    </g>
</svg>