<?xml version="1.0" encoding="UTF-8"?>
<svg width="28px" height="28px" viewBox="0 0 28 28" version="1.1" xmlns="http://www.w3.org/2000/svg" xmlns:xlink="http://www.w3.org/1999/xlink">
    <title>图标/弹窗/权限提升</title>
    <g id="图标/弹窗/权限提升" stroke="none" stroke-width="1" fill="none" fill-rule="evenodd">
        <g id="编组" transform="translate(2, 3.4583)" fill="#FFFFFF" fill-rule="nonzero">
            <path d="M5.38638316,13.778979 L5.38638316,21.0834857 L1.19765899,21.0834857 L1.19765899,17.1686255 L5.38638316,13.778979 L5.38638316,13.778979 Z M9.02523256,11.5670185 L10.3329261,13.1807507 C10.3698403,13.2565761 10.4146923,13.3282727 10.4667296,13.3946374 L10.4801859,13.4114709 L10.7672706,13.7657584 C10.9189862,13.9531059 11.1240659,14.0899109 11.3553151,14.1580324 L11.3553151,21.0834857 L7.16659093,21.0834857 L7.16659093,13.0711108 L9.02523256,11.5670185 L9.02523256,11.5670185 Z M17.2980675,9.91019487 L17.2980675,21.0834857 L13.1093433,21.0834857 L13.1093433,13.2999199 L17.2980675,9.91019487 Z M23.2669995,5.91336663 L23.2669995,21.0834857 L19.0782753,21.0834857 L19.0782753,9.30309166 L23.2669995,5.91336663 Z M23.2987552,0.00293927042 C23.4615892,0.0169291475 23.6155019,0.0833221347 23.7374194,0.192164885 C23.8982664,0.331361425 24,0.537001602 24,0.766412788 C24,0.828903317 23.9924603,0.889639818 23.9782186,0.947758365 L23.7173658,3.92892571 C23.6808454,4.34664623 23.3126042,4.655617 22.8948837,4.61909656 C22.4771893,4.58254994 22.1681924,4.21430873 22.204739,3.79658821 L22.2681982,3.07128444 L12.0202489,11.3665291 C11.9660715,11.4431904 11.9015767,11.5120107 11.8285886,11.5710435 L11.8281959,11.5713577 C11.4909512,11.8443316 11.0324954,11.867134 10.6774748,11.6633525 C10.5538582,11.5988544 10.4448439,11.5095969 10.3572207,11.4011384 C10.3196655,11.3548337 10.2862209,11.3053413 10.2572672,11.2532241 L8.81817869,9.47696941 L1.66200525,15.2695561 C1.22417885,15.6239745 0.581968901,15.5564837 0.227367221,15.1188405 C-0.127025023,14.6814592 -0.0597436412,14.0396157 0.3776377,13.6852235 L0.378004214,13.6849094 L8.27474409,7.29291627 C8.41991751,7.17501774 8.59482868,7.09949801 8.7801922,7.07468374 C9.14369492,6.99734942 9.53657107,7.12201633 9.78655936,7.43056822 L11.3136635,9.31541556 L20.9372049,1.52561904 L20.3610721,1.52561904 C19.9417546,1.52561904 19.6018658,1.18573026 19.6018658,0.766412788 C19.6018658,0.347121499 19.9417546,0.00720653316 20.3610721,0.00720653316 L23.127384,0.00720653316 C23.1841651,-0.000660546214 23.2416529,-0.00209203229 23.2987552,0.00293927042 L23.2987552,0.00293927042 Z" id="形状"></path>
        </g>
    </g>
</svg>