<?xml version="1.0" encoding="UTF-8"?>
<svg width="28px" height="28px" viewBox="0 0 28 28" version="1.1" xmlns="http://www.w3.org/2000/svg" xmlns:xlink="http://www.w3.org/1999/xlink">
    <title>图标/弹窗/防御绕过</title>
    <g id="图标/弹窗/防御绕过" stroke="none" stroke-width="1" fill="none" fill-rule="evenodd">
        <g id="编组-45" transform="translate(2, 2.6861)" fill="#FFFFFF" fill-rule="nonzero">
            <path d="M13.875,19.6277504 L10.5,22.6277504 L10.5,20.2832504 C4.75049999,19.7758754 0,16.9956254 0,13.6277504 C0,12.1120004 0.900000007,10.7181254 2.398125,9.5916254 L3.38474999,10.6311254 C2.19974999,11.4812504 1.5,12.5128754 1.5,13.6277504 C1.5,16.2062504 5.58074998,18.3396254 10.5,18.7825004 L10.5,16.6277504 L13.875,19.6277504 Z" id="路径"></path>
            <path d="M15.75,18.5267504 C19.69425,17.7715004 22.5,15.8642504 22.5,13.6277504 C22.5,12.3793754 21.62475,11.2341254 20.169375,10.3333754 L21.203625,9.29912539 C22.947375,10.4713754 24,11.9800004 24,13.6277504 C24,16.6183754 20.539125,19.1507504 15.75,20.0368754 L15.75,18.5267504 Z" id="路径"></path>
            <g id="编组" transform="translate(5.727, 0)">
                <path d="M6.33110993,14.7527504 C6.30180631,14.7527504 6.27307602,14.749406 6.2448872,14.7426215 C5.44524863,14.5408087 2.59540746,12.6195421 0.970266682,8.52356431 C0.220826491,6.63258869 0.0294929352,4.51788628 0.000189310906,3.07675314 C-0.00764622342,2.67943422 0.228407211,2.30144932 0.586293649,2.13540607 C2.29370754,1.34334821 5.42559609,0.00343999068 6.33604696,0 C7.24914152,0.00264369654 10.3672064,1.33863415 12.0655425,2.12836682 C12.3831046,2.27526717 12.6549913,2.71313339 12.6478884,3.0652228 C12.618107,4.51626184 12.4246712,6.64144348 11.6755177,8.52432875 C10.1465692,12.3682954 7.33520499,14.5002614 6.42051784,14.7417934 C6.39153273,14.7493741 6.36089133,14.7527504 6.33110993,14.7527504 Z" id="路径"></path>
            </g>
        </g>
    </g>
</svg>