<?xml version="1.0" encoding="UTF-8"?>
<svg width="108px" height="38px" viewBox="0 0 108 38" version="1.1" xmlns="http://www.w3.org/2000/svg" xmlns:xlink="http://www.w3.org/1999/xlink">
    <title>动态-底图</title>
    <defs>
        <linearGradient x1="39.9915418%" y1="48.4485307%" x2="33.4892682%" y2="56.190097%" id="linearGradient-1">
            <stop stop-color="#3C4D63" stop-opacity="0" offset="0%"></stop>
            <stop stop-color="#3C4D63" offset="100%"></stop>
        </linearGradient>
    </defs>
    <g id="控件" stroke="none" stroke-width="1" fill="none" fill-rule="evenodd">
        <g id="动态-底图">
            <path d="M10.431,3.67022481 L10.903,3.83622481 L0.352,37.9992248 L0.000251005979,38 L8.52651283e-14,37.4432248 L10.431,3.67022481 Z M14.201,4.99622481 L14.672,5.16222481 L4.531,37.9992248 L4.008,37.9992248 L14.201,4.99622481 Z M17.97,6.32322481 L18.442,6.48922481 L8.71,37.9992248 L8.187,37.9992248 L17.97,6.32322481 Z M21.739,7.64922481 L22.212,7.81522481 L12.889,37.9992248 L12.366,37.9992248 L21.739,7.64922481 Z M25.509,8.97522481 L25.981,9.14122481 L17.068,37.9992248 L16.545,37.9992248 L25.509,8.97522481 Z M29.279,10.3012248 L29.751,10.4672248 L21.247,37.9992248 L20.724,37.9992248 L29.279,10.3012248 Z M33.048,11.6282248 L33.52,11.7942248 L25.427,37.9992248 L24.904,37.9992248 L33.048,11.6282248 Z M36.818,12.9542248 L37.29,13.1202248 L29.606,37.9992248 L29.083,37.9992248 L36.818,12.9542248 Z M40.587,14.2802248 L41.06,14.4472248 L33.785,37.9992248 L33.262,37.9992248 L40.587,14.2802248 Z M44.357,15.6072248 L44.829,15.7732248 L37.964,37.9992248 L37.441,37.9992248 L44.357,15.6072248 Z M48.127,16.9332248 L48.599,17.0992248 L42.144,37.9992248 L41.621,37.9992248 L48.127,16.9332248 Z M51.896,18.2592248 L52.369,18.4262248 L46.323,37.9992248 L45.8,37.9992248 L51.896,18.2592248 Z M55.631,19.5732248 L56.103,19.7392248 L50.463,37.9992248 L49.94,37.9992248 L55.631,19.5732248 Z M59.401,20.9002248 L59.873,21.0662248 L54.643,37.9992248 L54.12,37.9992248 L59.401,20.9002248 Z M63.17,22.2262248 L63.643,22.3922248 L58.822,37.9992248 L58.299,37.9992248 L63.17,22.2262248 Z M66.94,23.5522248 L67.412,23.7182248 L63.001,37.9992248 L62.478,37.9992248 L66.94,23.5522248 Z M70.71,24.8792248 L71.182,25.0452248 L67.181,37.9992248 L66.658,37.9992248 L70.71,24.8792248 Z M74.479,26.2052248 L74.952,26.3712248 L71.36,37.9992248 L70.837,37.9992248 L74.479,26.2052248 Z M78.249,27.5312248 L78.721,27.6972248 L75.539,37.9992248 L75.016,37.9992248 L78.249,27.5312248 Z M82.018,28.8582248 L82.49,29.0242248 L79.718,37.9992248 L79.195,37.9992248 L82.018,28.8582248 Z M85.788,30.1842248 L86.26,30.3502248 L83.898,37.9992248 L83.375,37.9992248 L85.788,30.1842248 Z M89.558,31.5102248 L90.03,31.6762248 L88.077,37.9992248 L87.554,37.9992248 L89.558,31.5102248 Z M93.327,32.8362248 L93.799,33.0032248 L92.256,37.9992248 L91.733,37.9992248 L93.327,32.8362248 Z M97.097,34.1632248 L97.569,34.3292248 L96.435,37.9992248 L95.912,37.9992248 L97.097,34.1632248 Z M100.867,35.4892248 L101.338,35.6552248 L100.615,37.9992248 L100.092,37.9992248 L100.867,35.4892248 Z M104.636,36.8152248 L105.108,36.9822248 L104.794,37.9992248 L104.271,37.9992248 L104.636,36.8152248 Z M6.661,2.34422481 L7.134,2.51022481 L8.52651283e-14,25.6082248 L8.52651283e-14,23.9122248 L6.661,2.34422481 Z M2.892,1.01722481 L3.364,1.18422481 L8.52651283e-14,12.0752248 L8.52651283e-14,10.3812248 L2.892,1.01722481 Z" id="形状结合" fill="url(#linearGradient-1)"></path>
            <rect id="矩形" stroke="#3C4D63" stroke-width="0.5" x="0.25" y="0.25" width="107.5" height="37.5"></rect>
        </g>
    </g>
</svg>